# xmcd CD database file
#
# Track frame offsets:
#	182
#	9872
#	20542
#	29830
#	40705
#	49790
#	60405
#	71152
#	79717
#	88982
#	99920
#	109920
#	118187
#	128260
#	141982
#	151830
#	161372
#	174777
#	183762
#	194952
#	206607
#	216440
#	226602
#	236145
#	245172
#	255025
#	264485
#	274692
#	283120
#	292850
#
# Disc length: 4040 seconds
#
# Revision: 2
# Processed by: cddbd v1.5.2PL0 Copyright (c) Steve Scherf et al.
# Submitted via: CDex 2.15
#
DISCID=a10fc61e
DTITLE=Various Artist - MCA Rockabillies Vol.3
DYEAR=1993
DGENRE=Rockabilly
TTITLE0=Johnny O'Keefe - Shake Baby Shake
TTITLE1=Billy Gray and his Western Okies - Tennessee Toddy
TTITLE2=Chavis Brothers - Baby Don't Leave Me
TTITLE3=Johnnie and Jack - Uncle John's Bongo
TTITLE4=Moon Mullican - Jenny Lee
TTITLE5=Eddie Fontaine - One and Only
TTITLE6=Joe Therrien Jr. and his Rockets - Rockabilly Boogie
TTITLE7=Bobby Sykes - Touch of Loving
TTITLE8=Lewis Pruitt - Crazy Bullfrog
TTITLE9=Wayne Walker - You've Got Me
TTITLE10=Glenn Reeves - Rock-A-Boogie Lou
TTITLE11=Charlie Phillips - Be My Bride
TTITLE12=Veline Hackett - Show Me How
TTITLE13=Webb Pierce - California Blues
TTITLE14=Warner Mack - Falling in Love
TTITLE15=Joe Therrien Jr. and his Rockets - Come Back to Me
TTITLE16=Hardrock Gunter - You Played on My Piano
TTITLE17=Ray Doggett - It Hurts the One Who Loves You
TTITLE18=Tommy Sosebee - All Nite Boogie
TTITLE19=Glenn Reeves - Rock Around the World
TTITLE20=Rick Tucker - Patty Baby
TTITLE21=Rick Tucker - Don't Do Me This Way
TTITLE22=Jack Huddle - Starlight
TTITLE23=Donn Webb - Little Ditty Baby
TTITLE24=Don and The Roses - Leave Them Cats Alone
TTITLE25=Ronnie Smith - Lookie Lookie Lookie
TTITLE26=Ivan - That'll Be Allright
TTITLE27=Earl Henry - My Suzanne
TTITLE28=Fireballs - I Don't Know
TTITLE29=Big Danny Oliver - Sapphire
EXTD=YEAR: 1993
EXTT0=
EXTT1=
EXTT2=
EXTT3=
EXTT4=
EXTT5=
EXTT6=
EXTT7=
EXTT8=
EXTT9=
EXTT10=
EXTT11=
EXTT12=
EXTT13=
EXTT14=
EXTT15=
EXTT16=
EXTT17=
EXTT18=
EXTT19=
EXTT20=
EXTT21=
EXTT22=
EXTT23=
EXTT24=
EXTT25=
EXTT26=
EXTT27=
EXTT28=
EXTT29=
PLAYORDER=
